<svg width="109" height="19" viewBox="0 0 109 19" fill="none" xmlns="http://www.w3.org/2000/svg">
<path d="M15.1165 0.545454V18H11.929L4.33523 7.0142H4.20739V18H0.517045V0.545454H3.75568L11.2898 11.5227H11.4432V0.545454H15.1165ZM18.1655 18V0.545454H29.9268V3.58807H21.8558V7.74716H29.3217V10.7898H21.8558V14.9574H29.9609V18H18.1655ZM32.196 3.58807V0.545454H46.5312V3.58807H41.1875V18H37.5398V3.58807H32.196Z" fill="#BC6600"/>
<path d="M48.892 18V0.545454H60.4489V3.58807H52.5824V7.74716H59.6818V10.7898H52.5824V18H48.892ZM62.9311 18V0.545454H66.6214V14.9574H74.1044V18H62.9311ZM87.3295 0.545454H91.0199V11.8807C91.0199 13.1534 90.7159 14.267 90.108 15.2216C89.5057 16.1761 88.6619 16.9205 87.5767 17.4545C86.4915 17.983 85.2273 18.2472 83.7841 18.2472C82.3352 18.2472 81.0682 17.983 79.983 17.4545C78.8977 16.9205 78.054 16.1761 77.4517 15.2216C76.8494 14.267 76.5483 13.1534 76.5483 11.8807V0.545454H80.2386V11.5653C80.2386 12.2301 80.3835 12.821 80.6733 13.3381C80.9688 13.8551 81.3835 14.2614 81.9176 14.5568C82.4517 14.8523 83.0739 15 83.7841 15C84.5 15 85.1222 14.8523 85.6506 14.5568C86.1847 14.2614 86.5966 13.8551 86.8864 13.3381C87.1818 12.821 87.3295 12.2301 87.3295 11.5653V0.545454ZM97.5163 0.545454L101.036 6.49432H101.173L104.71 0.545454H108.877L103.55 9.27273L108.996 18H104.752L101.173 12.0426H101.036L97.4567 18H93.2294L98.6925 9.27273L93.3317 0.545454H97.5163Z" fill="#E3E3E3"/>
</svg>
